<?xml version="1.0" encoding="UTF-8"?>
<!--Generator: Apple Native CoreSVG 326-->
<!DOCTYPE svg
PUBLIC "-//W3C//DTD SVG 1.1//EN"
       "http://www.w3.org/Graphics/SVG/1.1/DTD/svg11.dtd">
<svg version="1.1" xmlns="http://www.w3.org/2000/svg" xmlns:xlink="http://www.w3.org/1999/xlink" viewBox="0 0 88.8209 90.3385">
 <g>
  <rect height="90.3385" opacity="0" width="88.8209" x="0" y="0"/>
  <path d="M70.6898 66.1019L74.2347 66.6292C75.4652 66.805 76.5491 67.5667 77.3109 68.6507L85.3089 80.4281C86.0413 81.4827 86.1292 82.596 85.3382 83.387L78.9808 89.7152C78.1898 90.5062 77.1351 90.5648 75.9925 89.7738L64.2445 81.7171C63.1605 80.9554 62.3988 79.8714 62.223 78.6409L61.6663 75.096L44.7471 58.231C45.6397 57.096 46.6164 55.902 47.6876 54.6445L66.2366 73.221L67.0277 77.5277L77.0472 85.1156L80.7093 81.4827L73.1214 71.4046L68.8148 70.7015L50.0129 51.9548C50.9729 50.8652 51.9995 49.7319 53.1072 48.5467ZM24.137 8.09407L48.1814 32.1384C48.1999 32.1913 48.224 32.2423 48.2484 32.2933C47.1516 33.3838 46.0856 34.4246 45.0603 35.4009L20.7386 11.0531C17.9847 8.29915 14.7913 8.29915 11.9788 11.1117L6.76399 16.4144C3.95149 19.2855 3.8929 22.3617 6.6468 25.1449L29.9282 48.4012C28.6082 49.3867 27.3626 50.2707 26.1887 51.0641L3.68782 28.514C-1.26335 23.5921-1.20476 18.055 3.71711 13.1331L8.72688 8.12337C13.6488 3.2015 19.1859 3.1429 24.137 8.09407ZM13.8831 21.1898L28.2093 35.5159C28.7659 36.0433 28.7366 36.8343 28.2386 37.3324C27.7406 37.8597 26.8909 37.889 26.3636 37.3617L12.0081 23.0648C11.4808 22.5667 11.5394 21.7171 12.0081 21.1898C12.5355 20.6624 13.4437 20.721 13.8831 21.1898ZM18.5999 16.473L32.9554 30.7699C33.4534 31.2679 33.4534 32.0882 32.9261 32.6742C32.4866 33.1429 31.5784 33.2015 31.0804 32.6742L16.7835 18.2894C16.2855 17.7913 16.2562 17.0003 16.7835 16.473C17.2523 15.9749 18.0726 15.9456 18.5999 16.473Z" fill="white" fill-opacity="0.85"/>
  <path d="M5.56282 85.4378C11.9495 91.7659 20.5335 91.8245 26.8323 85.4964C34.9476 77.3226 32.9554 68.5921 58.7073 42.723C66.6175 46.5023 76.2562 45.2425 82.6429 38.8558C89.264 32.264 90.4652 21.9222 85.7777 13.5726L75.8167 23.5335C74.6448 24.7054 73.2679 24.7347 72.0374 23.5335L67.4964 18.9632C66.2952 17.7327 66.2073 16.3265 67.3792 15.1546L77.3695 5.22298C69.0491 0.506184 58.7659 1.70736 52.1448 8.35775C45.7288 14.7445 44.4691 24.3831 48.2484 32.2933C22.3792 58.0159 13.6488 56.0238 5.47493 64.1097C-0.853198 70.4378-0.794604 79.0218 5.56282 85.4378ZM55.6312 35.3402C48.8929 28.5726 48.6878 17.8499 55.1917 11.3753C59.0589 7.53743 64.5374 6.04329 69.6644 7.03939L63.9222 12.7523C61.1976 15.5062 61.2562 18.846 64.0687 21.5999L69.3714 26.9027C72.1546 29.6566 75.4945 29.6859 78.1605 27.0492L83.9613 21.2191C84.9573 26.4339 83.4632 31.9124 79.5667 35.8089C73.0628 42.2835 62.4281 42.0492 55.6312 35.3402ZM8.78547 82.1859C4.33235 77.6449 4.36165 71.8148 8.69758 67.4788C17.3402 58.8656 23.0531 62.7327 50.4749 35.9261C51.0902 36.7757 51.7933 37.596 52.555 38.387C53.346 39.1488 54.1663 39.8812 55.0745 40.4964C28.2386 67.9183 32.1058 73.6312 23.4925 82.2738C19.1566 86.6097 13.2972 86.6683 8.78547 82.1859ZM16.0511 79.5784C18.5706 79.5784 20.5921 77.557 20.5921 75.0374C20.5921 72.5179 18.5706 70.4964 16.0511 70.4964C13.5316 70.4964 11.5101 72.5179 11.5101 75.0374C11.5101 77.557 13.5316 79.5784 16.0511 79.5784Z" fill="white" fill-opacity="0.85"/>
 </g>
</svg>
