<svg width="266" height="345" viewBox="0 0 266 345" fill="none" xmlns="http://www.w3.org/2000/svg">
<mask id="path-1-inside-1_13_140" fill="white">
<path d="M135.834 0C145.695 0 155.209 3.64262 162.549 10.2285L188.65 33.6504L209.09 52.0859C217.499 59.6707 222.3 70.4645 222.3 81.7891V235.721C220.578 235.575 218.835 235.5 217.075 235.5C183.234 235.5 155.8 262.934 155.8 296.775C155.8 299.22 155.943 301.63 156.222 304H40C17.9086 304 7.73214e-07 286.091 0 264V40C0 17.9086 17.9086 0 40 0H135.834Z"/>
</mask>
<path d="M162.549 10.2285L172.567 -0.935672L172.567 -0.935783L162.549 10.2285ZM188.65 33.6504L198.697 22.5118L198.683 22.499L198.668 22.4862L188.65 33.6504ZM209.09 52.0859L199.043 63.2245L199.043 63.2246L209.09 52.0859ZM222.3 235.721L221.038 250.668L237.3 252.041V235.721H222.3ZM217.075 235.5L217.075 220.5H217.075V235.5ZM155.8 296.775L140.8 296.775L140.8 296.775L155.8 296.775ZM156.222 304V319H173.087L171.119 302.25L156.222 304ZM40 304L40 319H40V304ZM0 264L-15 264L-15 264L0 264ZM135.834 0V15C141.997 15 147.944 17.2768 152.531 21.3928L162.549 10.2285L172.567 -0.935783C162.475 -9.99152 149.393 -15 135.834 -15V0ZM162.549 10.2285L152.531 21.3927L178.632 44.8146L188.65 33.6504L198.668 22.4862L172.567 -0.935672L162.549 10.2285ZM188.65 33.6504L178.604 44.7889L199.043 63.2245L209.09 52.0859L219.136 40.9474L198.697 22.5118L188.65 33.6504ZM209.09 52.0859L199.043 63.2246C204.3 67.9653 207.3 74.7114 207.3 81.7891H222.3H237.3C237.3 66.2175 230.699 51.3761 219.136 40.9472L209.09 52.0859ZM222.3 81.7891H207.3V235.721H222.3H237.3V81.7891H222.3ZM222.3 235.721L223.562 220.774C221.427 220.594 219.263 220.5 217.075 220.5L217.075 235.5L217.075 250.5C218.407 250.5 219.729 250.557 221.038 250.668L222.3 235.721ZM217.075 235.5V220.5C174.95 220.5 140.8 254.65 140.8 296.775H155.8H170.8C170.8 271.218 191.518 250.5 217.075 250.5V235.5ZM155.8 296.775L140.8 296.775C140.8 299.807 140.978 302.803 141.324 305.75L156.222 304L171.119 302.25C170.909 300.458 170.8 298.632 170.8 296.775L155.8 296.775ZM156.222 304V289H40V304V319H156.222V304ZM40 304L40 289C26.1929 289 15 277.807 15 264L0 264L-15 264C-15 294.376 9.62437 319 40 319L40 304ZM0 264H15V40H0H-15V264H0ZM0 40H15C15 26.1929 26.1929 15 40 15V0V-15C9.62434 -15 -15 9.62434 -15 40H0ZM40 0V15H135.834V0V-15H40V0Z" fill="#437DDB" mask="url(#path-1-inside-1_13_140)"/>
<path d="M145.15 12.5L145.15 61C145.15 66.5228 149.627 71 155.15 71H207.65" stroke="#437DDB" stroke-width="15"/>
<path d="M217.15 249C243.66 249 265.15 270.49 265.15 297C265.15 323.51 243.66 345 217.15 345C190.641 345 169.15 323.51 169.15 297C169.15 270.49 190.641 249 217.15 249ZM220.025 268.684C218.447 266.762 215.516 266.731 213.897 268.619L194.838 290.856C193.797 292.071 193.854 293.878 194.969 295.024C196.064 296.15 197.829 296.276 199.073 295.317L212 285.354V322C212 324.761 214.239 327 217 327C219.761 327 222 324.761 222 322V285.555L233.92 295.224C235.16 296.229 236.963 296.123 238.076 294.979C239.172 293.852 239.245 292.081 238.248 290.867L220.025 268.684Z" fill="#437DDB"/>
</svg>
